<svg height="512" viewBox="0 0 512 512" width="512" xmlns="http://www.w3.org/2000/svg"><g><g><path d="m265 328h232v-288h-432v224" fill="#d8d7da"/><path d="m257 264-48 112h-192v-112z" fill="#ff9811"/><path d="m97 376-6.4 38.4-.26 1.6-6.55 39.29a20.011 20.011 0 0 1 -19.73 16.71h-7.45a20 20 0 0 1 -19.73-23.29l12.12-72.71z" fill="#aa6100"/><path d="m129 376v40h-38.66l.26-1.6 6.4-38.4z" fill="#3e3d42"/><path d="m90.6 414.4-.26 1.6h-1.34z" fill="#d8d7da"/><path d="m249 288h16v64h-40" fill="#3e3d42"/><path d="m425 264h40v40h-40z" fill="#ff9811"/></g><g><path d="m496 32h-432a8 8 0 0 0 -8 8v216h-40a8 8 0 0 0 -8 8v112a8 8 0 0 0 8 8h22.56l-10.57 63.4a28.005 28.005 0 0 0 27.62 32.6h7.45a27.917 27.917 0 0 0 27.62-23.4l5.43-32.6h31.89a8 8 0 0 0 8-8v-32h72a8 8 0 0 0 7.35-4.85l8.65-20.17v1.02h40a8 8 0 0 0 8-8v-16h224a8 8 0 0 0 8-8v-288a8 8 0 0 0 -8-8zm-421.11 421.97a11.952 11.952 0 0 1 -11.83 10.03h-7.45a11.995 11.995 0 0 1 -11.84-13.97l11.01-66.03h31.78zm45.11-45.97h-21.22l4-24h17.22zm82.72-40h-178.72v-96h219.87zm53.28-24h-25.58l20.57-48h5.01zm232-24h-216v-32a8 8 0 0 0 -8-8h-6.15l5.5-12.85a8 8 0 0 0 -7.35-11.15h-184v-208h416z"/><path d="m280 240a8 8 0 0 0 8-8v-160a8 8 0 0 0 -16 0v160a8 8 0 0 0 8 8z"/><path d="m256 240a8 8 0 0 0 8-8v-160a8 8 0 0 0 -16 0v160a8 8 0 0 0 8 8z"/><path d="m208 240a8 8 0 0 0 8-8v-160a8 8 0 0 0 -16 0v160a8 8 0 0 0 8 8z"/><path d="m184 240a8 8 0 0 0 8-8v-160a8 8 0 0 0 -16 0v160a8 8 0 0 0 8 8z"/><path d="m160 240a8 8 0 0 0 8-8v-160a8 8 0 0 0 -16 0v160a8 8 0 0 0 8 8z"/><path d="m136 240a8 8 0 0 0 8-8v-160a8 8 0 0 0 -16 0v160a8 8 0 0 0 8 8z"/><path d="m464 240a8 8 0 0 0 8-8v-160a8 8 0 0 0 -16 0v160a8 8 0 0 0 8 8z"/><path d="m440 240a8 8 0 0 0 8-8v-160a8 8 0 0 0 -16 0v160a8 8 0 0 0 8 8z"/><path d="m392 240a8 8 0 0 0 8-8v-160a8 8 0 0 0 -16 0v160a8 8 0 0 0 8 8z"/><path d="m368 240a8 8 0 0 0 8-8v-160a8 8 0 0 0 -16 0v160a8 8 0 0 0 8 8z"/><path d="m344 240a8 8 0 0 0 8-8v-160a8 8 0 0 0 -16 0v160a8 8 0 0 0 8 8z"/><path d="m320 240a8 8 0 0 0 8-8v-160a8 8 0 0 0 -16 0v160a8 8 0 0 0 8 8z"/><path d="m96 240a8 8 0 0 0 8-8v-160a8 8 0 0 0 -16 0v160a8 8 0 0 0 8 8z"/><path d="m424 312h40a8 8 0 0 0 8-8v-40a8 8 0 0 0 -8-8h-40a8 8 0 0 0 -8 8v40a8 8 0 0 0 8 8zm8-40h24v24h-24z"/></g></g></svg>